<svg width="44" height="44" viewBox="0 0 44 44" fill="none" xmlns="http://www.w3.org/2000/svg">
<path fill-rule="evenodd" clip-rule="evenodd" d="M5.42484 5.42499C3.87582 6.95339 2.64444 8.77311 1.80158 10.7794C0.958728 12.7856 0.521055 14.9388 0.513764 17.1149C0.506474 19.291 0.929711 21.447 1.7591 23.4589C2.5885 25.4708 3.80767 27.2987 5.34641 28.8374C6.88515 30.3762 8.71308 31.5953 10.7249 32.4247C12.7368 33.2541 14.8928 33.6774 17.069 33.6701C19.2451 33.6628 21.3982 33.2251 23.4045 32.3823C25.4107 31.5394 27.2304 30.308 28.7588 28.759C31.8189 25.6576 33.5282 21.4718 33.5136 17.1149C33.499 12.758 31.7617 8.58371 28.6809 5.5029C25.6001 2.4221 21.4258 0.684855 17.069 0.670259C12.7121 0.655663 8.52623 2.3649 5.42484 5.42499ZM24.5168 24.517C23.5418 25.4921 22.3842 26.2655 21.1102 26.7932C19.8362 27.3209 18.4708 27.5925 17.0918 27.5925C15.7129 27.5925 14.3474 27.3209 13.0735 26.7932C11.7995 26.2655 10.6419 25.4921 9.66684 24.517C8.69178 23.5419 7.91832 22.3844 7.39061 21.1104C6.86291 19.8364 6.59131 18.4709 6.59131 17.092C6.59131 15.713 6.86291 14.3476 7.39061 13.0736C7.91832 11.7996 8.69178 10.6421 9.66684 9.66699C11.6361 7.69776 14.3069 6.59146 17.0918 6.59146C19.8768 6.59146 22.5476 7.69776 24.5168 9.66699C26.4861 11.6362 27.5924 14.3071 27.5924 17.092C27.5924 19.8769 26.4861 22.5478 24.5168 24.517Z" fill="#1F1F1F"/>
<path d="M25.5758 31.942C25.1578 31.524 24.8262 31.0278 24.6 30.4816C24.3738 29.9355 24.2573 29.3501 24.2573 28.759C24.2573 28.1679 24.3738 27.5825 24.6 27.0364C24.8262 26.4902 25.1578 25.994 25.5758 25.576C25.9938 25.158 26.49 24.8264 27.0361 24.6002C27.5823 24.374 28.1676 24.2576 28.7588 24.2576C29.3499 24.2576 29.9353 24.374 30.4814 24.6002C31.0275 24.8264 31.5238 25.158 31.9418 25.576L42.5468 36.184C42.9766 36.5991 43.3194 37.0957 43.5552 37.6447C43.7911 38.1937 43.9152 38.7842 43.9204 39.3817C43.9256 39.9792 43.8117 40.5718 43.5855 41.1248C43.3592 41.6778 43.0251 42.1803 42.6025 42.6028C42.18 43.0253 41.6776 43.3594 41.1246 43.5857C40.5715 43.812 39.979 43.9258 39.3815 43.9206C38.784 43.9154 38.1935 43.7913 37.6444 43.5555C37.0954 43.3196 36.5989 42.9768 36.1838 42.547L25.5758 31.942Z" fill="#1F1F1F"/>
</svg>
