<svg width="60" height="60" viewBox="0 0 60 60" fill="none" xmlns="http://www.w3.org/2000/svg">
<path d="M29.8575 3.125H33.75C34.2473 3.125 34.7242 3.32254 35.0758 3.67417C35.4275 4.02581 35.625 4.50272 35.625 5C35.625 5.49728 35.4275 5.97419 35.0758 6.32583C34.7242 6.67746 34.2473 6.875 33.75 6.875H30C24.055 6.875 19.785 6.88 16.535 7.315C13.3375 7.745 11.41 8.565 9.985 9.9875C8.5625 11.4125 7.745 13.3375 7.315 16.535C6.88 19.785 6.875 24.055 6.875 30C6.875 35.945 6.88 40.215 7.315 43.465C7.745 46.6625 8.565 48.59 9.9875 50.015C11.4125 51.4375 13.3375 52.255 16.535 52.685C19.785 53.12 24.055 53.125 30 53.125C35.945 53.125 40.215 53.12 43.465 52.685C46.6625 52.255 48.59 51.435 50.015 50.0125C51.4375 48.5875 52.255 46.6625 52.685 43.465C53.12 40.215 53.125 35.945 53.125 30V26.25C53.125 25.7527 53.3225 25.2758 53.6742 24.9242C54.0258 24.5725 54.5027 24.375 55 24.375C55.4973 24.375 55.9742 24.5725 56.3258 24.9242C56.6775 25.2758 56.875 25.7527 56.875 26.25V30.1425C56.875 35.915 56.875 40.4375 56.4 43.9675C55.915 47.5775 54.9 50.4275 52.665 52.665C50.4275 54.9025 47.5775 55.915 43.965 56.4C40.4375 56.875 35.915 56.875 30.1425 56.875H29.8575C24.085 56.875 19.5625 56.875 16.0325 56.4C12.4225 55.915 9.5725 54.9 7.335 52.665C5.0975 50.4275 4.085 47.5775 3.6 43.965C3.125 40.4375 3.125 35.915 3.125 30.1425V29.8575C3.125 24.085 3.125 19.5625 3.6 16.0325C4.085 12.4225 5.1 9.5725 7.335 7.335C9.5725 5.0975 12.4225 4.085 16.035 3.6C19.5625 3.125 24.085 3.125 29.8575 3.125Z" fill="#1F1F1F"/>
<path d="M43.7 23.56C44.0818 23.8783 44.3215 24.3352 44.3665 24.8303C44.4116 25.3253 44.2581 25.818 43.94 26.2L39.3675 31.6875C38.5475 32.6725 37.8075 33.5625 37.1175 34.1875C36.3625 34.8625 35.4175 35.47 34.1675 35.47C32.9175 35.47 31.97 34.865 31.2175 34.185C30.5275 33.56 29.7875 32.6725 28.965 31.685L28.235 30.81C27.3075 29.6975 26.7375 29.02 26.2675 28.5975C26.1458 28.4782 26.0088 28.3756 25.86 28.2925L25.8425 28.285L25.8325 28.28L25.8075 28.2925C25.6578 28.3753 25.5199 28.4779 25.3975 28.5975C24.93 29.0225 24.36 29.6975 23.4325 30.81L18.94 36.2C18.6177 36.5684 18.1641 36.7961 17.6761 36.8346C17.1882 36.8731 16.7045 36.7192 16.3285 36.4058C15.9524 36.0925 15.7138 35.6445 15.6637 35.1576C15.6135 34.6706 15.7558 34.1834 16.06 33.8L20.6325 28.3125C21.4525 27.3275 22.1925 26.4375 22.8825 25.8125C23.6375 25.1375 24.5825 24.53 25.8325 24.53C27.0825 24.53 28.03 25.135 28.7825 25.815C29.4725 26.44 30.2125 27.3275 31.035 28.315L31.765 29.19C32.6925 30.3025 33.2625 30.98 33.7325 31.4025C33.9475 31.5975 34.0775 31.6775 34.14 31.7075L34.165 31.72L34.1775 31.715L34.195 31.7075C34.3438 31.6244 34.4809 31.5219 34.6025 31.4025C35.07 30.9775 35.64 30.3025 36.5675 29.19L41.06 23.8C41.3783 23.4182 41.8353 23.1784 42.3303 23.1334C42.8254 23.0884 43.318 23.2419 43.7 23.56Z" fill="#1F1F1F"/>
<path fill-rule="evenodd" clip-rule="evenodd" d="M47.5 3.125C45.0136 3.125 42.629 4.11272 40.8709 5.87087C39.1127 7.62903 38.125 10.0136 38.125 12.5C38.125 14.9864 39.1127 17.371 40.8709 19.1291C42.629 20.8873 45.0136 21.875 47.5 21.875C49.9864 21.875 52.371 20.8873 54.1291 19.1291C55.8873 17.371 56.875 14.9864 56.875 12.5C56.875 10.0136 55.8873 7.62903 54.1291 5.87087C52.371 4.11272 49.9864 3.125 47.5 3.125ZM41.875 12.5C41.875 11.0082 42.4676 9.57742 43.5225 8.52252C44.5774 7.46763 46.0082 6.875 47.5 6.875C48.9918 6.875 50.4226 7.46763 51.4775 8.52252C52.5324 9.57742 53.125 11.0082 53.125 12.5C53.125 13.9918 52.5324 15.4226 51.4775 16.4775C50.4226 17.5324 48.9918 18.125 47.5 18.125C46.0082 18.125 44.5774 17.5324 43.5225 16.4775C42.4676 15.4226 41.875 13.9918 41.875 12.5Z" fill="#1F1F1F"/>
</svg>
