<svg width="50" height="50" viewBox="0 0 50 50" fill="none" xmlns="http://www.w3.org/2000/svg">
<path d="M50 28.75C50 33.15 46.75 36.8 42.5 37.4V45C42.5 46.3261 41.9732 47.5978 41.0355 48.5355C40.0978 49.4732 38.8261 50 37.5 50H28V49.25C28 47.4598 27.2888 45.7429 26.023 44.477C24.7571 43.2112 23.0402 42.5 21.25 42.5C17.5 42.5 14.5 45.525 14.5 49.25V50H5C3.67392 50 2.40215 49.4732 1.46447 48.5355C0.526784 47.5978 0 46.3261 0 45V35.5H0.75C4.475 35.5 7.5 32.5 7.5 28.75C7.5 25 4.475 22 0.75 22H0V12.5C0 11.1739 0.526784 9.90215 1.46447 8.96447C2.40215 8.02678 3.67392 7.5 5 7.5H12.6C13.2 3.25 16.85 0 21.25 0C25.65 0 29.3 3.25 29.9 7.5H37.5C38.8261 7.5 40.0978 8.02678 41.0355 8.96447C41.9732 9.90215 42.5 11.1739 42.5 12.5V20.1C46.75 20.7 50 24.35 50 28.75ZM37.5 32.5H41.25C42.2446 32.5 43.1984 32.1049 43.9016 31.4016C44.6049 30.6984 45 29.7446 45 28.75C45 27.7554 44.6049 26.8016 43.9016 26.0983C43.1984 25.3951 42.2446 25 41.25 25H37.5V12.5H25V8.75C25 7.75544 24.6049 6.80161 23.9016 6.09835C23.1984 5.39509 22.2446 5 21.25 5C20.2554 5 19.3016 5.39509 18.5983 6.09835C17.8951 6.80161 17.5 7.75544 17.5 8.75V12.5H5V17.8C9.4 19.5 12.5 23.75 12.5 28.75C12.5 33.75 9.375 38 5 39.7V45H10.3C11.1567 42.7919 12.6606 40.8943 14.6147 39.5559C16.5687 38.2175 18.8816 37.5009 21.25 37.5C26.25 37.5 30.5 40.625 32.2 45H37.5V32.5Z" fill="#1F1F1F"/>
</svg>
