<svg width="54" height="44" viewBox="0 0 54 44" fill="none" xmlns="http://www.w3.org/2000/svg">
<path d="M48.25 2H5.75C3.67893 2 2 3.67893 2 5.75V38.25C2 40.3211 3.67893 42 5.75 42H48.25C50.3211 42 52 40.3211 52 38.25V5.75C52 3.67893 50.3211 2 48.25 2Z" stroke="#1F1F1F" stroke-width="3" stroke-linejoin="round"/>
<path d="M2 5.75C2 4.75544 2.39509 3.80161 3.09835 3.09835C3.80161 2.39509 4.75544 2 5.75 2H48.25C49.2446 2 50.1984 2.39509 50.9016 3.09835C51.6049 3.80161 52 4.75544 52 5.75V17H2V5.75Z" stroke="#1F1F1F" stroke-width="3"/>
<path d="M7 9.5C7 8.11929 8.11929 7 9.5 7C10.8807 7 12 8.11929 12 9.5C12 10.8807 10.8807 12 9.5 12C8.11929 12 7 10.8807 7 9.5Z" fill="#1F1F1F"/>
<path d="M14.5 9.5C14.5 8.11929 15.6193 7 17 7C18.3807 7 19.5 8.11929 19.5 9.5C19.5 10.8807 18.3807 12 17 12C15.6193 12 14.5 10.8807 14.5 9.5Z" fill="#1F1F1F"/>
</svg>
